<?xml version="1.0"?>
<svg xmlns="http://www.w3.org/2000/svg" xmlns:xlink="http://www.w3.org/1999/xlink" xmlns:svgjs="http://svgjs.com/svgjs" version="1.1" width="512" height="512" x="0" y="0" viewBox="0 0 512 512" style="enable-background:new 0 0 512 512" xml:space="preserve" class=""><g><g xmlns="http://www.w3.org/2000/svg"><g><path d="m4 126.492 58.8 235.728h275.164l58.776-235.728zm116.964 203.74c.377 4.865-3.261 9.115-8.126 9.493-.556.043-1.115.034-1.67-.029-5.931.173-11.209-3.739-12.768-9.464l-24.992-142.984c-1.686-6.505 2.221-13.145 8.727-14.831.976-.253 1.981-.384 2.989-.389 8.403.499 15.276 6.878 16.4 15.22zm60.468 0c-.278 5.516-4.974 9.762-10.49 9.484-.103-.005-.207-.012-.31-.02-5.761.312-10.83-3.769-11.756-9.464l-10.188-142.984c-.864-7.495 4.511-14.27 12.006-15.134.408-.047.819-.076 1.23-.086 8.214.318 14.746 7.001 14.876 15.22zm60.468 0c-.934 5.708-6.025 9.792-11.8 9.464-5.505.449-10.331-3.65-10.78-9.154-.008-.103-.015-.206-.02-.31l4.628-142.988c.149-8.208 6.666-14.879 14.868-15.22 7.549.161 13.538 6.411 13.377 13.961-.009.421-.037.841-.085 1.259zm60.468 0c-1.572 5.717-6.841 9.623-12.768 9.464-4.854.562-9.245-2.917-9.807-7.772-.065-.562-.076-1.129-.033-1.692l19.44-142.984c1.127-8.358 8.024-14.742 16.444-15.22 6.735.055 12.151 5.559 12.097 12.295-.008.987-.136 1.969-.381 2.925z" fill="#ffffff" data-original="#d9e2e9" style="" class=""/></g><g><path d="m396.748 126.488h-392.748l58.776 235.732h20.252l-53.524-214.584h362z" fill="#ffffff" data-original="#f0f5f9" style="" class=""/></g><g><path d="m146.456 351.392c.377 4.865-3.261 9.115-8.126 9.493-.556.043-1.115.034-1.67-.029-5.936.179-11.22-3.734-12.78-9.464l-24.976-142.992c-1.675-6.508 2.244-13.142 8.752-14.816.967-.249 1.961-.378 2.96-.384 8.403.499 15.276 6.878 16.4 15.22zm60.468 0c-.278 5.516-4.974 9.762-10.49 9.484-.103-.005-.207-.012-.31-.02-5.761.312-10.83-3.769-11.756-9.464l-10.188-142.992c-.853-7.496 4.532-14.264 12.028-15.117.401-.046.804-.073 1.208-.083 8.203.321 14.728 6.992 14.868 15.2zm60.468 0c-.934 5.708-6.025 9.792-11.8 9.464-5.505.449-10.331-3.65-10.78-9.154-.008-.103-.015-.206-.02-.31l4.612-142.992c.16-8.198 6.671-14.857 14.864-15.2 7.549.162 13.537 6.414 13.375 13.963-.009.413-.037.826-.083 1.237zm60.468 0c-1.573 5.721-6.849 9.628-12.78 9.464-4.854.562-9.245-2.917-9.807-7.772-.065-.562-.076-1.129-.033-1.692l19.44-142.992c1.136-8.35 8.031-14.723 16.444-15.2 6.735.058 12.149 5.564 12.091 12.3-.008.978-.134 1.952-.375 2.9z" fill="#ffffff" data-original="#d9e2e9" style="" class=""/></g><g><path d="m337.964 366.22h-275.164c-1.836 0-3.437-1.25-3.881-3.032l-58.8-235.728c-.298-1.195-.029-2.46.729-3.431.758-.97 1.921-1.538 3.152-1.538h392.74c1.231 0 2.394.567 3.152 1.538.758.97 1.026 2.235.729 3.43l-58.776 235.728c-.445 1.783-2.045 3.033-3.881 3.033zm-272.039-8h268.914l56.781-227.728h-382.5zm222.648-14.464c-6.429 0-11.996-4.833-12.754-11.37-.094-.812-.11-1.639-.048-2.457.006-.079.015-.157.024-.235l19.44-142.984c1.38-10.233 9.867-18.089 20.181-18.675.086-.005.173-.005.259-.006 4.326.035 8.38 1.753 11.414 4.837s4.686 7.165 4.65 11.49c-.01 1.252-.166 2.504-.465 3.723l-24.967 142.843c-.022.126-.05.25-.084.372-2.04 7.421-8.776 12.531-16.455 12.407-.4.036-.799.055-1.195.055zm-4.832-13.119c-.015.276-.007.554.025.826.308 2.658 2.725 4.567 5.373 4.26.189-.021.384-.029.566-.025 4.014.141 7.615-2.497 8.758-6.359l24.957-142.779c.018-.102.039-.202.064-.301.165-.644.251-1.306.256-1.967.018-2.19-.817-4.255-2.354-5.816-1.506-1.531-3.508-2.396-5.65-2.445-6.433.429-11.709 5.352-12.572 11.753zm18.627-.405h.01zm-190.213 13.519c-.381 0-.763-.017-1.143-.051-7.688.151-14.443-4.969-16.472-12.417-.033-.119-.06-.24-.081-.362l-24.965-142.837c-1.024-4.129-.402-8.415 1.759-12.088 2.19-3.722 5.698-6.369 9.879-7.452 1.297-.336 2.633-.51 3.971-.517.088.001.172.002.259.007 10.287.611 18.751 8.467 20.127 18.68l19.439 142.979c.011.076.019.153.025.229.265 3.419-.817 6.735-3.047 9.34-2.229 2.604-5.34 4.186-8.758 4.45-.331.026-.662.039-.993.039zm-.988-8.055c.147 0 .295.008.442.024.307.035.616.04.921.016 1.286-.1 2.458-.695 3.298-1.676.819-.956 1.227-2.167 1.154-3.42l-19.421-142.853c-.861-6.392-6.124-11.314-12.541-11.758-.634.013-1.267.101-1.882.26-2.112.547-3.884 1.884-4.991 3.765-1.106 1.88-1.414 4.079-.867 6.191.027.104.05.209.068.315l24.957 142.784c1.132 3.868 4.708 6.425 8.746 6.354.039-.001.078-.002.116-.002zm118.111 8.033c-7.209 0-13.349-5.554-13.945-12.862-.012-.146-.021-.286-.028-.426-.006-.112-.007-.226-.003-.339l4.628-142.988c.187-10.25 8.401-18.659 18.699-19.087.084-.003.168-.004.252-.002 4.719.101 9.117 2.033 12.383 5.441s5.009 7.884 4.908 12.604c-.011.515-.045 1.031-.1 1.538l-10.182 142.909c-.008.121-.022.242-.042.362-1.253 7.657-7.975 13.106-15.7 12.824-.293.018-.582.026-.87.026zm-5.974-13.56.003.054c.269 3.292 3.176 5.743 6.468 5.487.183-.016.367-.02.551-.007 3.687.201 6.926-2.343 7.598-5.956l10.174-142.787c.004-.057.009-.114.016-.17.034-.297.054-.595.061-.894.055-2.58-.899-5.029-2.687-6.895-1.758-1.835-4.117-2.889-6.653-2.975-6.017.316-10.797 5.251-10.907 11.291zm18.596.063h.01zm-70.448 13.497c-.236 0-.473-.006-.711-.018l-.148-.01c-7.71.314-14.423-5.183-15.666-12.828-.019-.118-.033-.237-.042-.357l-10.182-142.903c-1.061-9.637 5.889-18.362 15.532-19.473.528-.061 1.062-.098 1.588-.111.084-.002.169-.002.254.001 10.334.4 18.557 8.813 18.721 19.154l4.631 142.917c.003.11.002.221-.003.331-.375 7.472-6.574 13.297-13.974 13.297zm-.82-8.033c.1 0 .201.004.3.012l.235.016c3.242.159 6.021-2.314 6.26-5.548l-4.626-142.798c-.097-6.116-4.875-11.047-10.904-11.347-.25.009-.5.028-.749.057-2.561.295-4.855 1.571-6.459 3.592s-2.324 4.546-2.029 7.11c.007.058.012.116.016.174l10.174 142.785c.666 3.603 3.894 6.144 7.564 5.953.074-.004.146-.006.218-.006z" fill="#ffffff" data-original="#2f3a5a" style="" class=""/></g><g><path d="m314.696 422.4h-172.12c-2.209 0-4-1.791-4-4s1.791-4 4-4h172.12c15.963 0 28.904-12.941 28.904-28.904 0-7.667-3.046-15.019-8.468-20.44-1.564-1.565-1.563-4.102.002-5.666s4.102-1.563 5.666.002c14.412 14.411 14.413 37.778.002 52.19-6.92 6.921-16.307 10.809-26.094 10.81z" fill="#ffffff" data-original="#2f3a5a" style="" class=""/></g><g><path d="m396.744 130.492c-2.209.003-4.002-1.786-4.005-3.995 0-.347.044-.693.133-1.029l17.128-64.896c.463-1.756 2.052-2.98 3.868-2.98h83.704c2.209.002 3.998 1.795 3.996 4.004-.002 2.206-1.79 3.994-3.996 3.996h-80.62l-16.348 61.92c-.462 1.753-2.047 2.976-3.86 2.98z" fill="#ffffff" data-original="#2f3a5a" style="" class=""/></g><g><circle cx="124.076" cy="421.556" fill="#ffffff" r="38.18" data-original="#84879c" style="" class=""/></g><g><circle cx="124.076" cy="421.556" fill="#ffffff" r="16.592" data-original="#d9e2e9" style="" class=""/></g><g><path d="m124.08 463.736c-23.295.002-42.182-18.881-42.184-42.176s18.881-42.182 42.176-42.184 42.182 18.881 42.184 42.176v.004c-.026 23.283-18.893 42.151-42.176 42.18zm0-76.356c-18.877-.002-34.182 15.299-34.184 34.176s15.299 34.182 34.176 34.184 34.182-15.299 34.184-34.176c0-.003 0-.005 0-.008-.022-18.866-15.31-34.154-34.176-34.176z" fill="#ffffff" data-original="#2f3a5a" style="" class=""/></g><g><circle cx="252.108" cy="421.556" fill="#ffffff" r="38.18" data-original="#84879c" style="" class=""/></g><g><circle cx="252.108" cy="421.556" fill="#ffffff" r="16.592" data-original="#d9e2e9" style="" class=""/></g><g><path d="m252.108 463.736c-23.295 0-42.18-18.885-42.18-42.18s18.885-42.18 42.18-42.18 42.18 18.885 42.18 42.18c-.026 23.284-18.896 42.154-42.18 42.18zm0-76.356c-18.877 0-34.18 15.303-34.18 34.18s15.303 34.18 34.18 34.18 34.18-15.303 34.18-34.18c0-.001 0-.003 0-.004-.022-18.867-15.313-34.156-34.18-34.176z" fill="#ffffff" data-original="#2f3a5a" style="" class=""/></g><g><path d="m498.672 52.264h-69.26v18.656h69.264c5.152.003 9.33-4.172 9.333-9.323s-4.172-9.33-9.323-9.333c-.003 0-.006 0-.009 0z" fill="#ffffff" data-original="#ef5361" style="" class=""/></g><g><path d="m498.672 74.92h-69.26c-2.209 0-4-1.791-4-4v-18.656c0-2.209 1.791-4 4-4h69.26c7.361.003 13.326 5.973 13.323 13.333-.003 7.357-5.966 13.32-13.323 13.323zm-65.26-8h65.26c2.943-.002 5.327-2.389 5.325-5.331-.002-2.94-2.385-5.323-5.325-5.325h-65.26z" fill="#ffffff" data-original="#2f3a5a" style="" class=""/></g></g></g></svg>
